<?xml version="1.0" encoding="utf-8"?>
<!-- Generator: Adobe Illustrator 19.2.1, SVG Export Plug-In . SVG Version: 6.00 Build 0)  -->
<svg version="1.1" id="Layer_1" xmlns="http://www.w3.org/2000/svg" xmlns:xlink="http://www.w3.org/1999/xlink" x="0px" y="0px"
	 viewBox="0 0 360 360" style="enable-background:new 0 0 360 360;" xml:space="preserve">
<style type="text/css">
	.st0{fill:#676767;}
</style>
<symbol  id="Card02" viewBox="-150.9 -149.7 301.7 299.4">
	<use xlink:href="#Deleted_Symbol_3"  width="301.7" height="299.4" x="-150.9" y="-149.7" style="overflow:visible;"/>
</symbol>
<symbol  id="Deleted_Symbol_3" viewBox="-150.9 -149.7 301.7 299.4">
	<path class="st0" d="M150.9-44.8v194.5H-143V-26.7c0-14.7,2.7-29.3,6.7-43.5c1.7-6,1.2-14.7-6.7-26.1
		c-24.5-29.1,13.4-71.4,41.9-45.2c7.9,7.3,12.4,17.7,12.6,28.4c0.9,36.2,29.5,25.3,37.4,13.6c8.5-12.7,46.5-2.1,64.5,11.6
		S44.1-91,42-113.2s33.8-31.7,47.6,7.4c11.8,33.6,27.1-5.5,49.6,24.8C147-70.6,150.9-57.8,150.9-44.8z"/>
</symbol>
<symbol  id="Deleted_Symbol_4" viewBox="-143.5 -135 295.4 303.5">
	<path class="st0" d="M151.5-40.5v209h-293V16.1c0-27.5,5.4-55.2-0.6-82c-4.8-21.5,2.6-44,33.4-36.7c8.4,2,16.2,5.7,23.2,10.7
		c16.3,11.5,58,37.3,43.2-12.9c-9.2-36,56.2-46.9,51.9,6.6c-1.1,14,12.3,1.3,16.4,15.1c5.3,18,28,24.5,37-10.6
		c13.3-52,55.8-50.9,62-7.4C127-86.6,155.7-84.9,151.5-40.5z"/>
</symbol>
<use xlink:href="#Card02"  width="301.7" height="299.4" id="XMLID_3_" x="-150.9" y="-149.7" transform="matrix(1 0 0 -1 180 180)" style="overflow:visible;"/>
</svg>
