<?xml version="1.0" encoding="utf-8"?>
<!-- Generator: Adobe Illustrator 19.2.1, SVG Export Plug-In . SVG Version: 6.00 Build 0)  -->
<svg version="1.1" id="Layer_1" xmlns="http://www.w3.org/2000/svg" xmlns:xlink="http://www.w3.org/1999/xlink" x="0px" y="0px"
	 viewBox="0 0 360 360" style="enable-background:new 0 0 360 360;" xml:space="preserve">
<style type="text/css">
	.st0{fill:#676767;}
</style>
<symbol  id="Card01" viewBox="-148.3 -152.4 296.5 304.7">
	
		<use xlink:href="#Deleted_Symbol_4"  width="295.4" height="303.5" id="XMLID_5_" x="-143.5" y="-135" transform="matrix(1.004 0 0 1.004 -4.2524 -16.8046)" style="overflow:visible;"/>
</symbol>
<symbol  id="Deleted_Symbol_4" viewBox="-143.5 -135 295.4 303.5">
	<path class="st0" d="M151.5-40.5v209h-293V16.1c0-27.5,5.4-55.2-0.6-82c-4.8-21.5,2.6-44,33.4-36.7c8.4,2,16.2,5.7,23.2,10.7
		c16.3,11.5,58,37.3,43.2-12.9c-9.2-36,56.2-46.9,51.9,6.6c-1.1,14,12.3,1.3,16.4,15.1c5.3,18,28,24.5,37-10.6
		c13.3-52,55.8-50.9,62-7.4C127-86.6,155.7-84.9,151.5-40.5z"/>
</symbol>
<use xlink:href="#Card01"  width="296.5" height="304.7" id="XMLID_20_" x="-148.3" y="-152.4" transform="matrix(1 0 0 -1 180 180)" style="overflow:visible;"/>
</svg>
